<?xml version="1.0" encoding="utf-8"?>
<!-- Generator: Adobe Illustrator 25.3.1, SVG Export Plug-In . SVG Version: 6.00 Build 0)  -->
<svg version="1.1" xmlns="http://www.w3.org/2000/svg" xmlns:xlink="http://www.w3.org/1999/xlink" x="0px" y="0px"
	 viewBox="0 0 1080 1080" style="enable-background:new 0 0 1080 1080;" xml:space="preserve">
<style type="text/css">
	.st0{fill:url(#rect3713_1_);}
	.st1{fill:#9CFFF9;}
	.st2{fill:#FFFFFF;}
</style>
<g id="Background" xmlns:cc="http://creativecommons.org/ns#" xmlns:dc="http://purl.org/dc/elements/1.1/" xmlns:inkscape="http://www.inkscape.org/namespaces/inkscape" xmlns:rdf="http://www.w3.org/1999/02/22-rdf-syntax-ns#" xmlns:sodipodi="http://sodipodi.sourceforge.net/DTD/sodipodi-0.dtd" xmlns:svg="http://www.w3.org/2000/svg">
	
		<linearGradient id="rect3713_1_" gradientUnits="userSpaceOnUse" x1="187.0787" y1="-682.6877" x2="442.5906" y2="-420.3722" gradientTransform="matrix(3.7498 0 0 -3.7108 -643.4456 -1503.6873)">
		<stop  offset="0" style="stop-color:#2C5AA0"/>
		<stop  offset="1" style="stop-color:#8787DE"/>
	</linearGradient>
	<rect id="rect3713" x="0" y="0" class="st0" width="1080" height="1080"/>
</g>
<g id="Hexagon_1_">
</g>
<g id="Down_1_">
	<polygon class="st1" points="451.4,531.4 408.2,530.5 847.3,970.7 851.5,974.9 851.5,172.4 825.9,172.4 826.1,922.1 	"/>
	<polygon class="st1" points="787.6,172.4 758.6,172.4 758.6,767.9 534.4,533.2 496.9,532.4 787.6,839.6 	"/>
	<path class="st1" d="M496.9,532.4"/>
</g>
<g id="Up_1_">
	<polygon class="st2" points="635.4,543.5 678.6,544.4 239.5,104.2 235.3,100 235.3,902.5 260.9,902.5 260.8,164.4 	"/>
	<polygon class="st2" points="299.2,902.5 328.2,902.5 328.2,307 552.5,541.8 589.9,542.6 299.2,235.3 	"/>
	<path class="st2" d="M589.9,542.6"/>
</g>
</svg>
